<svg xmlns="http://www.w3.org/2000/svg" xmlns:xlink="http://www.w3.org/1999/xlink" width="410" height="141" viewBox="0 0 410 141">
  <defs>
    <clipPath id="clip-path">
      <rect id="Rectangle_13" data-name="Rectangle 13" width="390" height="140" fill="#bc1b21" opacity="0.4"/>
    </clipPath>
    <clipPath id="clip-path-2">
      <rect width="390" height="144.274" fill="none"/>
    </clipPath>
    <linearGradient id="linear-gradient" x1="0.5" x2="0.5" y2="1" gradientUnits="objectBoundingBox">
      <stop offset="0"/>
      <stop offset="1" stop-opacity="0"/>
    </linearGradient>
    <linearGradient id="linear-gradient-2" y1="1" y2="0" xlink:href="#linear-gradient"/>
    <clipPath id="clip-path-3">
      <rect id="Rectangle_3" data-name="Rectangle 3" width="338.422" height="70" fill="none"/>
    </clipPath>
  </defs>
  <g id="Group_8" data-name="Group 8" transform="translate(10 -225)">
    <g id="Background" transform="translate(0 166)">
      <rect id="Background-2" data-name="Background" width="390" height="140" transform="translate(0 60)" fill="#bc1b21" opacity="0.4"/>
      <g id="Pattern" transform="translate(0 60)" opacity="0.25" clip-path="url(#clip-path)">
        <g id="Repeat_Grid_2" data-name="Repeat Grid 2" transform="translate(0 -2.003)" clip-path="url(#clip-path-2)">
          <g transform="translate(0 -66.76)">
            <path id="Path_23" data-name="Path 23" d="M0,5c9.285,0,9.285,6.24,18.571,6.24S27.856,5,37.141,5s9.284,6.24,18.569,6.24S64.995,5,74.279,5s9.285,6.24,18.57,6.24S102.135,5,111.421,5s9.285,6.24,18.57,6.24S139.276,5,148.562,5s9.285,6.24,18.57,6.24S176.418,5,185.7,5s9.286,6.24,18.571,6.24S213.56,5,222.846,5s9.286,6.24,18.573,6.24S250.7,5,259.99,5s9.286,6.24,18.572,6.24S287.848,5,297.134,5s9.286,6.24,18.572,6.24S324.992,5,334.279,5s9.286,6.24,18.572,6.24S362.138,5,371.425,5s9.287,6.24,18.575,6.24" transform="translate(0 63.76)" fill="none" stroke="#bc1b21" stroke-miterlimit="10" stroke-width="2"/>
          </g>
          <g transform="translate(0 -61.76)">
            <path id="Path_23-2" data-name="Path 23" d="M0,5c9.285,0,9.285,6.24,18.571,6.24S27.856,5,37.141,5s9.284,6.24,18.569,6.24S64.995,5,74.279,5s9.285,6.24,18.57,6.24S102.135,5,111.421,5s9.285,6.24,18.57,6.24S139.276,5,148.562,5s9.285,6.24,18.57,6.24S176.418,5,185.7,5s9.286,6.24,18.571,6.24S213.56,5,222.846,5s9.286,6.24,18.573,6.24S250.7,5,259.99,5s9.286,6.24,18.572,6.24S287.848,5,297.134,5s9.286,6.24,18.572,6.24S324.992,5,334.279,5s9.286,6.24,18.572,6.24S362.138,5,371.425,5s9.287,6.24,18.575,6.24" transform="translate(0 63.76)" fill="none" stroke="#bc1b21" stroke-miterlimit="10" stroke-width="2"/>
          </g>
          <g transform="translate(0 -56.76)">
            <path id="Path_23-3" data-name="Path 23" d="M0,5c9.285,0,9.285,6.24,18.571,6.24S27.856,5,37.141,5s9.284,6.24,18.569,6.24S64.995,5,74.279,5s9.285,6.24,18.57,6.24S102.135,5,111.421,5s9.285,6.24,18.57,6.24S139.276,5,148.562,5s9.285,6.24,18.57,6.24S176.418,5,185.7,5s9.286,6.24,18.571,6.24S213.56,5,222.846,5s9.286,6.24,18.573,6.24S250.7,5,259.99,5s9.286,6.24,18.572,6.24S287.848,5,297.134,5s9.286,6.24,18.572,6.24S324.992,5,334.279,5s9.286,6.24,18.572,6.24S362.138,5,371.425,5s9.287,6.24,18.575,6.24" transform="translate(0 63.76)" fill="none" stroke="#bc1b21" stroke-miterlimit="10" stroke-width="2"/>
          </g>
          <g transform="translate(0 -51.76)">
            <path id="Path_23-4" data-name="Path 23" d="M0,5c9.285,0,9.285,6.24,18.571,6.24S27.856,5,37.141,5s9.284,6.24,18.569,6.24S64.995,5,74.279,5s9.285,6.24,18.57,6.24S102.135,5,111.421,5s9.285,6.24,18.57,6.24S139.276,5,148.562,5s9.285,6.24,18.57,6.24S176.418,5,185.7,5s9.286,6.24,18.571,6.24S213.56,5,222.846,5s9.286,6.24,18.573,6.24S250.7,5,259.99,5s9.286,6.24,18.572,6.24S287.848,5,297.134,5s9.286,6.24,18.572,6.24S324.992,5,334.279,5s9.286,6.24,18.572,6.24S362.138,5,371.425,5s9.287,6.24,18.575,6.24" transform="translate(0 63.76)" fill="none" stroke="#bc1b21" stroke-miterlimit="10" stroke-width="2"/>
          </g>
          <g transform="translate(0 -46.76)">
            <path id="Path_23-5" data-name="Path 23" d="M0,5c9.285,0,9.285,6.24,18.571,6.24S27.856,5,37.141,5s9.284,6.24,18.569,6.24S64.995,5,74.279,5s9.285,6.24,18.57,6.24S102.135,5,111.421,5s9.285,6.24,18.57,6.24S139.276,5,148.562,5s9.285,6.24,18.57,6.24S176.418,5,185.7,5s9.286,6.24,18.571,6.24S213.56,5,222.846,5s9.286,6.24,18.573,6.24S250.7,5,259.99,5s9.286,6.24,18.572,6.24S287.848,5,297.134,5s9.286,6.24,18.572,6.24S324.992,5,334.279,5s9.286,6.24,18.572,6.24S362.138,5,371.425,5s9.287,6.24,18.575,6.24" transform="translate(0 63.76)" fill="none" stroke="#bc1b21" stroke-miterlimit="10" stroke-width="2"/>
          </g>
          <g transform="translate(0 -41.76)">
            <path id="Path_23-6" data-name="Path 23" d="M0,5c9.285,0,9.285,6.24,18.571,6.24S27.856,5,37.141,5s9.284,6.24,18.569,6.24S64.995,5,74.279,5s9.285,6.24,18.57,6.24S102.135,5,111.421,5s9.285,6.24,18.57,6.24S139.276,5,148.562,5s9.285,6.24,18.57,6.24S176.418,5,185.7,5s9.286,6.24,18.571,6.24S213.56,5,222.846,5s9.286,6.24,18.573,6.24S250.7,5,259.99,5s9.286,6.24,18.572,6.24S287.848,5,297.134,5s9.286,6.24,18.572,6.24S324.992,5,334.279,5s9.286,6.24,18.572,6.24S362.138,5,371.425,5s9.287,6.24,18.575,6.24" transform="translate(0 63.76)" fill="none" stroke="#bc1b21" stroke-miterlimit="10" stroke-width="2"/>
          </g>
          <g transform="translate(0 -36.76)">
            <path id="Path_23-7" data-name="Path 23" d="M0,5c9.285,0,9.285,6.24,18.571,6.24S27.856,5,37.141,5s9.284,6.24,18.569,6.24S64.995,5,74.279,5s9.285,6.24,18.57,6.24S102.135,5,111.421,5s9.285,6.24,18.57,6.24S139.276,5,148.562,5s9.285,6.24,18.57,6.24S176.418,5,185.7,5s9.286,6.24,18.571,6.24S213.56,5,222.846,5s9.286,6.24,18.573,6.24S250.7,5,259.99,5s9.286,6.24,18.572,6.24S287.848,5,297.134,5s9.286,6.24,18.572,6.24S324.992,5,334.279,5s9.286,6.24,18.572,6.24S362.138,5,371.425,5s9.287,6.24,18.575,6.24" transform="translate(0 63.76)" fill="none" stroke="#bc1b21" stroke-miterlimit="10" stroke-width="2"/>
          </g>
          <g transform="translate(0 -31.76)">
            <path id="Path_23-8" data-name="Path 23" d="M0,5c9.285,0,9.285,6.24,18.571,6.24S27.856,5,37.141,5s9.284,6.24,18.569,6.24S64.995,5,74.279,5s9.285,6.24,18.57,6.24S102.135,5,111.421,5s9.285,6.24,18.57,6.24S139.276,5,148.562,5s9.285,6.24,18.57,6.24S176.418,5,185.7,5s9.286,6.24,18.571,6.24S213.56,5,222.846,5s9.286,6.24,18.573,6.24S250.7,5,259.99,5s9.286,6.24,18.572,6.24S287.848,5,297.134,5s9.286,6.24,18.572,6.24S324.992,5,334.279,5s9.286,6.24,18.572,6.24S362.138,5,371.425,5s9.287,6.24,18.575,6.24" transform="translate(0 63.76)" fill="none" stroke="#bc1b21" stroke-miterlimit="10" stroke-width="2"/>
          </g>
          <g transform="translate(0 -26.76)">
            <path id="Path_23-9" data-name="Path 23" d="M0,5c9.285,0,9.285,6.24,18.571,6.24S27.856,5,37.141,5s9.284,6.24,18.569,6.24S64.995,5,74.279,5s9.285,6.24,18.57,6.24S102.135,5,111.421,5s9.285,6.24,18.57,6.24S139.276,5,148.562,5s9.285,6.24,18.57,6.24S176.418,5,185.7,5s9.286,6.24,18.571,6.24S213.56,5,222.846,5s9.286,6.24,18.573,6.24S250.7,5,259.99,5s9.286,6.24,18.572,6.24S287.848,5,297.134,5s9.286,6.24,18.572,6.24S324.992,5,334.279,5s9.286,6.24,18.572,6.24S362.138,5,371.425,5s9.287,6.24,18.575,6.24" transform="translate(0 63.76)" fill="none" stroke="#bc1b21" stroke-miterlimit="10" stroke-width="2"/>
          </g>
          <g transform="translate(0 -21.76)">
            <path id="Path_23-10" data-name="Path 23" d="M0,5c9.285,0,9.285,6.24,18.571,6.24S27.856,5,37.141,5s9.284,6.24,18.569,6.24S64.995,5,74.279,5s9.285,6.24,18.57,6.24S102.135,5,111.421,5s9.285,6.24,18.57,6.24S139.276,5,148.562,5s9.285,6.24,18.57,6.24S176.418,5,185.7,5s9.286,6.24,18.571,6.24S213.56,5,222.846,5s9.286,6.24,18.573,6.24S250.7,5,259.99,5s9.286,6.24,18.572,6.24S287.848,5,297.134,5s9.286,6.24,18.572,6.24S324.992,5,334.279,5s9.286,6.24,18.572,6.24S362.138,5,371.425,5s9.287,6.24,18.575,6.24" transform="translate(0 63.76)" fill="none" stroke="#bc1b21" stroke-miterlimit="10" stroke-width="2"/>
          </g>
          <g transform="translate(0 -16.76)">
            <path id="Path_23-11" data-name="Path 23" d="M0,5c9.285,0,9.285,6.24,18.571,6.24S27.856,5,37.141,5s9.284,6.24,18.569,6.24S64.995,5,74.279,5s9.285,6.24,18.57,6.24S102.135,5,111.421,5s9.285,6.24,18.57,6.24S139.276,5,148.562,5s9.285,6.24,18.57,6.24S176.418,5,185.7,5s9.286,6.24,18.571,6.24S213.56,5,222.846,5s9.286,6.24,18.573,6.24S250.7,5,259.99,5s9.286,6.24,18.572,6.24S287.848,5,297.134,5s9.286,6.24,18.572,6.24S324.992,5,334.279,5s9.286,6.24,18.572,6.24S362.138,5,371.425,5s9.287,6.24,18.575,6.24" transform="translate(0 63.76)" fill="none" stroke="#bc1b21" stroke-miterlimit="10" stroke-width="2"/>
          </g>
          <g transform="translate(0 -11.76)">
            <path id="Path_23-12" data-name="Path 23" d="M0,5c9.285,0,9.285,6.24,18.571,6.24S27.856,5,37.141,5s9.284,6.24,18.569,6.24S64.995,5,74.279,5s9.285,6.24,18.57,6.24S102.135,5,111.421,5s9.285,6.24,18.57,6.24S139.276,5,148.562,5s9.285,6.24,18.57,6.24S176.418,5,185.7,5s9.286,6.24,18.571,6.24S213.56,5,222.846,5s9.286,6.24,18.573,6.24S250.7,5,259.99,5s9.286,6.24,18.572,6.24S287.848,5,297.134,5s9.286,6.24,18.572,6.24S324.992,5,334.279,5s9.286,6.24,18.572,6.24S362.138,5,371.425,5s9.287,6.24,18.575,6.24" transform="translate(0 63.76)" fill="none" stroke="#bc1b21" stroke-miterlimit="10" stroke-width="2"/>
          </g>
          <g transform="translate(0 -6.76)">
            <path id="Path_23-13" data-name="Path 23" d="M0,5c9.285,0,9.285,6.24,18.571,6.24S27.856,5,37.141,5s9.284,6.24,18.569,6.24S64.995,5,74.279,5s9.285,6.24,18.57,6.24S102.135,5,111.421,5s9.285,6.24,18.57,6.24S139.276,5,148.562,5s9.285,6.24,18.57,6.24S176.418,5,185.7,5s9.286,6.24,18.571,6.24S213.56,5,222.846,5s9.286,6.24,18.573,6.24S250.7,5,259.99,5s9.286,6.24,18.572,6.24S287.848,5,297.134,5s9.286,6.24,18.572,6.24S324.992,5,334.279,5s9.286,6.24,18.572,6.24S362.138,5,371.425,5s9.287,6.24,18.575,6.24" transform="translate(0 63.76)" fill="none" stroke="#bc1b21" stroke-miterlimit="10" stroke-width="2"/>
          </g>
          <g transform="translate(0 -1.76)">
            <path id="Path_23-14" data-name="Path 23" d="M0,5c9.285,0,9.285,6.24,18.571,6.24S27.856,5,37.141,5s9.284,6.24,18.569,6.24S64.995,5,74.279,5s9.285,6.24,18.57,6.24S102.135,5,111.421,5s9.285,6.24,18.57,6.24S139.276,5,148.562,5s9.285,6.24,18.57,6.24S176.418,5,185.7,5s9.286,6.24,18.571,6.24S213.56,5,222.846,5s9.286,6.24,18.573,6.24S250.7,5,259.99,5s9.286,6.24,18.572,6.24S287.848,5,297.134,5s9.286,6.24,18.572,6.24S324.992,5,334.279,5s9.286,6.24,18.572,6.24S362.138,5,371.425,5s9.287,6.24,18.575,6.24" transform="translate(0 63.76)" fill="none" stroke="#bc1b21" stroke-miterlimit="10" stroke-width="2"/>
          </g>
          <g transform="translate(0 3.24)">
            <path id="Path_23-15" data-name="Path 23" d="M0,5c9.285,0,9.285,6.24,18.571,6.24S27.856,5,37.141,5s9.284,6.24,18.569,6.24S64.995,5,74.279,5s9.285,6.24,18.57,6.24S102.135,5,111.421,5s9.285,6.24,18.57,6.24S139.276,5,148.562,5s9.285,6.24,18.57,6.24S176.418,5,185.7,5s9.286,6.24,18.571,6.24S213.56,5,222.846,5s9.286,6.24,18.573,6.24S250.7,5,259.99,5s9.286,6.24,18.572,6.24S287.848,5,297.134,5s9.286,6.24,18.572,6.24S324.992,5,334.279,5s9.286,6.24,18.572,6.24S362.138,5,371.425,5s9.287,6.24,18.575,6.24" transform="translate(0 63.76)" fill="none" stroke="#bc1b21" stroke-miterlimit="10" stroke-width="2"/>
          </g>
          <g transform="translate(0 8.24)">
            <path id="Path_23-16" data-name="Path 23" d="M0,5c9.285,0,9.285,6.24,18.571,6.24S27.856,5,37.141,5s9.284,6.24,18.569,6.24S64.995,5,74.279,5s9.285,6.24,18.57,6.24S102.135,5,111.421,5s9.285,6.24,18.57,6.24S139.276,5,148.562,5s9.285,6.24,18.57,6.24S176.418,5,185.7,5s9.286,6.24,18.571,6.24S213.56,5,222.846,5s9.286,6.24,18.573,6.24S250.7,5,259.99,5s9.286,6.24,18.572,6.24S287.848,5,297.134,5s9.286,6.24,18.572,6.24S324.992,5,334.279,5s9.286,6.24,18.572,6.24S362.138,5,371.425,5s9.287,6.24,18.575,6.24" transform="translate(0 63.76)" fill="none" stroke="#bc1b21" stroke-miterlimit="10" stroke-width="2"/>
          </g>
          <g transform="translate(0 13.24)">
            <path id="Path_23-17" data-name="Path 23" d="M0,5c9.285,0,9.285,6.24,18.571,6.24S27.856,5,37.141,5s9.284,6.24,18.569,6.24S64.995,5,74.279,5s9.285,6.24,18.57,6.24S102.135,5,111.421,5s9.285,6.24,18.57,6.24S139.276,5,148.562,5s9.285,6.24,18.57,6.24S176.418,5,185.7,5s9.286,6.24,18.571,6.24S213.56,5,222.846,5s9.286,6.24,18.573,6.24S250.7,5,259.99,5s9.286,6.24,18.572,6.24S287.848,5,297.134,5s9.286,6.24,18.572,6.24S324.992,5,334.279,5s9.286,6.24,18.572,6.24S362.138,5,371.425,5s9.287,6.24,18.575,6.24" transform="translate(0 63.76)" fill="none" stroke="#bc1b21" stroke-miterlimit="10" stroke-width="2"/>
          </g>
          <g transform="translate(0 18.24)">
            <path id="Path_23-18" data-name="Path 23" d="M0,5c9.285,0,9.285,6.24,18.571,6.24S27.856,5,37.141,5s9.284,6.24,18.569,6.24S64.995,5,74.279,5s9.285,6.24,18.57,6.24S102.135,5,111.421,5s9.285,6.24,18.57,6.24S139.276,5,148.562,5s9.285,6.24,18.57,6.24S176.418,5,185.7,5s9.286,6.24,18.571,6.24S213.56,5,222.846,5s9.286,6.24,18.573,6.24S250.7,5,259.99,5s9.286,6.24,18.572,6.24S287.848,5,297.134,5s9.286,6.24,18.572,6.24S324.992,5,334.279,5s9.286,6.24,18.572,6.24S362.138,5,371.425,5s9.287,6.24,18.575,6.24" transform="translate(0 63.76)" fill="none" stroke="#bc1b21" stroke-miterlimit="10" stroke-width="2"/>
          </g>
          <g transform="translate(0 23.24)">
            <path id="Path_23-19" data-name="Path 23" d="M0,5c9.285,0,9.285,6.24,18.571,6.24S27.856,5,37.141,5s9.284,6.24,18.569,6.24S64.995,5,74.279,5s9.285,6.24,18.57,6.24S102.135,5,111.421,5s9.285,6.24,18.57,6.24S139.276,5,148.562,5s9.285,6.24,18.57,6.24S176.418,5,185.7,5s9.286,6.24,18.571,6.24S213.56,5,222.846,5s9.286,6.24,18.573,6.24S250.7,5,259.99,5s9.286,6.24,18.572,6.24S287.848,5,297.134,5s9.286,6.24,18.572,6.24S324.992,5,334.279,5s9.286,6.24,18.572,6.24S362.138,5,371.425,5s9.287,6.24,18.575,6.24" transform="translate(0 63.76)" fill="none" stroke="#bc1b21" stroke-miterlimit="10" stroke-width="2"/>
          </g>
          <g transform="translate(0 28.24)">
            <path id="Path_23-20" data-name="Path 23" d="M0,5c9.285,0,9.285,6.24,18.571,6.24S27.856,5,37.141,5s9.284,6.24,18.569,6.24S64.995,5,74.279,5s9.285,6.24,18.57,6.24S102.135,5,111.421,5s9.285,6.24,18.57,6.24S139.276,5,148.562,5s9.285,6.24,18.57,6.24S176.418,5,185.7,5s9.286,6.24,18.571,6.24S213.56,5,222.846,5s9.286,6.24,18.573,6.24S250.7,5,259.99,5s9.286,6.24,18.572,6.24S287.848,5,297.134,5s9.286,6.24,18.572,6.24S324.992,5,334.279,5s9.286,6.24,18.572,6.24S362.138,5,371.425,5s9.287,6.24,18.575,6.24" transform="translate(0 63.76)" fill="none" stroke="#bc1b21" stroke-miterlimit="10" stroke-width="2"/>
          </g>
          <g transform="translate(0 33.24)">
            <path id="Path_23-21" data-name="Path 23" d="M0,5c9.285,0,9.285,6.24,18.571,6.24S27.856,5,37.141,5s9.284,6.24,18.569,6.24S64.995,5,74.279,5s9.285,6.24,18.57,6.24S102.135,5,111.421,5s9.285,6.24,18.57,6.24S139.276,5,148.562,5s9.285,6.24,18.57,6.24S176.418,5,185.7,5s9.286,6.24,18.571,6.24S213.56,5,222.846,5s9.286,6.24,18.573,6.24S250.7,5,259.99,5s9.286,6.24,18.572,6.24S287.848,5,297.134,5s9.286,6.24,18.572,6.24S324.992,5,334.279,5s9.286,6.24,18.572,6.24S362.138,5,371.425,5s9.287,6.24,18.575,6.24" transform="translate(0 63.76)" fill="none" stroke="#bc1b21" stroke-miterlimit="10" stroke-width="2"/>
          </g>
          <g transform="translate(0 38.24)">
            <path id="Path_23-22" data-name="Path 23" d="M0,5c9.285,0,9.285,6.24,18.571,6.24S27.856,5,37.141,5s9.284,6.24,18.569,6.24S64.995,5,74.279,5s9.285,6.24,18.57,6.24S102.135,5,111.421,5s9.285,6.24,18.57,6.24S139.276,5,148.562,5s9.285,6.24,18.57,6.24S176.418,5,185.7,5s9.286,6.24,18.571,6.24S213.56,5,222.846,5s9.286,6.24,18.573,6.24S250.7,5,259.99,5s9.286,6.24,18.572,6.24S287.848,5,297.134,5s9.286,6.24,18.572,6.24S324.992,5,334.279,5s9.286,6.24,18.572,6.24S362.138,5,371.425,5s9.287,6.24,18.575,6.24" transform="translate(0 63.76)" fill="none" stroke="#bc1b21" stroke-miterlimit="10" stroke-width="2"/>
          </g>
          <g transform="translate(0 43.24)">
            <path id="Path_23-23" data-name="Path 23" d="M0,5c9.285,0,9.285,6.24,18.571,6.24S27.856,5,37.141,5s9.284,6.24,18.569,6.24S64.995,5,74.279,5s9.285,6.24,18.57,6.24S102.135,5,111.421,5s9.285,6.24,18.57,6.24S139.276,5,148.562,5s9.285,6.24,18.57,6.24S176.418,5,185.7,5s9.286,6.24,18.571,6.24S213.56,5,222.846,5s9.286,6.24,18.573,6.24S250.7,5,259.99,5s9.286,6.24,18.572,6.24S287.848,5,297.134,5s9.286,6.24,18.572,6.24S324.992,5,334.279,5s9.286,6.24,18.572,6.24S362.138,5,371.425,5s9.287,6.24,18.575,6.24" transform="translate(0 63.76)" fill="none" stroke="#bc1b21" stroke-miterlimit="10" stroke-width="2"/>
          </g>
          <g transform="translate(0 48.24)">
            <path id="Path_23-24" data-name="Path 23" d="M0,5c9.285,0,9.285,6.24,18.571,6.24S27.856,5,37.141,5s9.284,6.24,18.569,6.24S64.995,5,74.279,5s9.285,6.24,18.57,6.24S102.135,5,111.421,5s9.285,6.24,18.57,6.24S139.276,5,148.562,5s9.285,6.24,18.57,6.24S176.418,5,185.7,5s9.286,6.24,18.571,6.24S213.56,5,222.846,5s9.286,6.24,18.573,6.24S250.7,5,259.99,5s9.286,6.24,18.572,6.24S287.848,5,297.134,5s9.286,6.24,18.572,6.24S324.992,5,334.279,5s9.286,6.24,18.572,6.24S362.138,5,371.425,5s9.287,6.24,18.575,6.24" transform="translate(0 63.76)" fill="none" stroke="#bc1b21" stroke-miterlimit="10" stroke-width="2"/>
          </g>
          <g transform="translate(0 53.24)">
            <path id="Path_23-25" data-name="Path 23" d="M0,5c9.285,0,9.285,6.24,18.571,6.24S27.856,5,37.141,5s9.284,6.24,18.569,6.24S64.995,5,74.279,5s9.285,6.24,18.57,6.24S102.135,5,111.421,5s9.285,6.24,18.57,6.24S139.276,5,148.562,5s9.285,6.24,18.57,6.24S176.418,5,185.7,5s9.286,6.24,18.571,6.24S213.56,5,222.846,5s9.286,6.24,18.573,6.24S250.7,5,259.99,5s9.286,6.24,18.572,6.24S287.848,5,297.134,5s9.286,6.24,18.572,6.24S324.992,5,334.279,5s9.286,6.24,18.572,6.24S362.138,5,371.425,5s9.287,6.24,18.575,6.24" transform="translate(0 63.76)" fill="none" stroke="#bc1b21" stroke-miterlimit="10" stroke-width="2"/>
          </g>
          <g transform="translate(0 58.24)">
            <path id="Path_23-26" data-name="Path 23" d="M0,5c9.285,0,9.285,6.24,18.571,6.24S27.856,5,37.141,5s9.284,6.24,18.569,6.24S64.995,5,74.279,5s9.285,6.24,18.57,6.24S102.135,5,111.421,5s9.285,6.24,18.57,6.24S139.276,5,148.562,5s9.285,6.24,18.57,6.24S176.418,5,185.7,5s9.286,6.24,18.571,6.24S213.56,5,222.846,5s9.286,6.24,18.573,6.24S250.7,5,259.99,5s9.286,6.24,18.572,6.24S287.848,5,297.134,5s9.286,6.24,18.572,6.24S324.992,5,334.279,5s9.286,6.24,18.572,6.24S362.138,5,371.425,5s9.287,6.24,18.575,6.24" transform="translate(0 63.76)" fill="none" stroke="#bc1b21" stroke-miterlimit="10" stroke-width="2"/>
          </g>
          <g transform="translate(0 63.24)">
            <path id="Path_23-27" data-name="Path 23" d="M0,5c9.285,0,9.285,6.24,18.571,6.24S27.856,5,37.141,5s9.284,6.24,18.569,6.24S64.995,5,74.279,5s9.285,6.24,18.57,6.24S102.135,5,111.421,5s9.285,6.24,18.57,6.24S139.276,5,148.562,5s9.285,6.24,18.57,6.24S176.418,5,185.7,5s9.286,6.24,18.571,6.24S213.56,5,222.846,5s9.286,6.24,18.573,6.24S250.7,5,259.99,5s9.286,6.24,18.572,6.24S287.848,5,297.134,5s9.286,6.24,18.572,6.24S324.992,5,334.279,5s9.286,6.24,18.572,6.24S362.138,5,371.425,5s9.287,6.24,18.575,6.24" transform="translate(0 63.76)" fill="none" stroke="#bc1b21" stroke-miterlimit="10" stroke-width="2"/>
          </g>
          <g transform="translate(0 68.24)">
            <path id="Path_23-28" data-name="Path 23" d="M0,5c9.285,0,9.285,6.24,18.571,6.24S27.856,5,37.141,5s9.284,6.24,18.569,6.24S64.995,5,74.279,5s9.285,6.24,18.57,6.24S102.135,5,111.421,5s9.285,6.24,18.57,6.24S139.276,5,148.562,5s9.285,6.24,18.57,6.24S176.418,5,185.7,5s9.286,6.24,18.571,6.24S213.56,5,222.846,5s9.286,6.24,18.573,6.24S250.7,5,259.99,5s9.286,6.24,18.572,6.24S287.848,5,297.134,5s9.286,6.24,18.572,6.24S324.992,5,334.279,5s9.286,6.24,18.572,6.24S362.138,5,371.425,5s9.287,6.24,18.575,6.24" transform="translate(0 63.76)" fill="none" stroke="#bc1b21" stroke-miterlimit="10" stroke-width="2"/>
          </g>
          <g transform="translate(0 73.24)">
            <path id="Path_23-29" data-name="Path 23" d="M0,5c9.285,0,9.285,6.24,18.571,6.24S27.856,5,37.141,5s9.284,6.24,18.569,6.24S64.995,5,74.279,5s9.285,6.24,18.57,6.24S102.135,5,111.421,5s9.285,6.24,18.57,6.24S139.276,5,148.562,5s9.285,6.24,18.57,6.24S176.418,5,185.7,5s9.286,6.24,18.571,6.24S213.56,5,222.846,5s9.286,6.24,18.573,6.24S250.7,5,259.99,5s9.286,6.24,18.572,6.24S287.848,5,297.134,5s9.286,6.24,18.572,6.24S324.992,5,334.279,5s9.286,6.24,18.572,6.24S362.138,5,371.425,5s9.287,6.24,18.575,6.24" transform="translate(0 63.76)" fill="none" stroke="#bc1b21" stroke-miterlimit="10" stroke-width="2"/>
          </g>
        </g>
      </g>
      <rect id="Gradient" width="390" height="60" transform="translate(0 60)" opacity="0.4" fill="url(#linear-gradient)"/>
      <rect id="Gradient-2" data-name="Gradient" width="390" height="60" transform="translate(0 140)" opacity="0.4" fill="url(#linear-gradient-2)"/>
      <rect id="Line" width="390" height="1" transform="translate(0 199)" fill="#bc1b21"/>
      <rect id="Line-2" data-name="Line" width="390" height="1" transform="translate(0 59)" fill="#bc1b21"/>
    </g>
    <g id="MATCH" transform="translate(25.789 261)">
      <g id="Group_1" data-name="Group 1" transform="translate(0 0)" clip-path="url(#clip-path-3)">
        <path id="Path_9" data-name="Path 9" d="M158.842,66.139l-38.823,3.4a12.991,12.991,0,0,1-14.073-11.808l-3.4-38.823A12.99,12.99,0,0,1,114.358,4.83l38.823-3.4a12.99,12.99,0,0,1,14.073,11.808l3.4,38.823a12.991,12.991,0,0,1-11.809,14.073" transform="translate(-35.923 -0.485)"/>
        <path id="Path_10" data-name="Path 10" d="M154.328,1.384V3.333a11.107,11.107,0,0,1,10.984,10.081l3.4,38.823A11.043,11.043,0,0,1,158.672,64.2l-38.823,3.4c-.324.028-.653.042-.977.042a11.108,11.108,0,0,1-10.985-10.08l-3.4-38.823A11.055,11.055,0,0,1,114.527,6.772l38.823-3.4c.324-.029.653-.043.977-.043Zm0,0c-.379,0-.763.016-1.147.05l-38.823,3.4A12.99,12.99,0,0,0,102.549,18.9l3.4,38.823a12.991,12.991,0,0,0,12.926,11.859c.379,0,.763-.016,1.147-.05l38.823-3.4A12.991,12.991,0,0,0,170.65,52.066l-3.4-38.823A12.991,12.991,0,0,0,154.328,1.384" transform="translate(-35.923 -0.485)" fill="#bc1b21"/>
        <path id="Path_11" data-name="Path 11" d="M260.456,69.138l-38.947-1.36A12.99,12.99,0,0,1,208.98,54.341l1.36-38.947A12.99,12.99,0,0,1,223.776,2.865l38.947,1.36a12.991,12.991,0,0,1,12.529,13.436l-1.36,38.947a12.991,12.991,0,0,1-13.436,12.529" transform="translate(-73.239 -1.001)"/>
        <path id="Path_12" data-name="Path 12" d="M223.314,4.8h0q.2,0,.394.007l38.947,1.36a11.042,11.042,0,0,1,10.65,11.421l-1.36,38.947A11,11,0,0,1,260.918,67.2c-.131,0-.262,0-.394-.007l-38.948-1.36a11.042,11.042,0,0,1-10.65-11.421l1.36-38.947A11,11,0,0,1,223.314,4.8m0-1.949A12.991,12.991,0,0,0,210.34,15.393l-1.36,38.948a12.991,12.991,0,0,0,12.529,13.436l38.947,1.36q.232.008.462.008a12.991,12.991,0,0,0,12.974-12.537l1.36-38.948A12.991,12.991,0,0,0,262.723,4.224l-38.947-1.36q-.232-.008-.462-.008" transform="translate(-73.239 -1.001)" fill="#bc1b21"/>
        <path id="Path_13" data-name="Path 13" d="M360.89,69.872,322.3,64.448a12.991,12.991,0,0,1-11.056-14.672l5.424-38.592A12.991,12.991,0,0,1,331.338.128L369.93,5.551a12.991,12.991,0,0,1,11.056,14.672l-5.423,38.592A12.991,12.991,0,0,1,360.89,69.872" transform="translate(-109.037 0)"/>
        <path id="Path_14" data-name="Path 14" d="M329.514,1.949a11.14,11.14,0,0,1,1.553.109l38.592,5.424a11.043,11.043,0,0,1,9.4,12.472l-5.424,38.592a11.029,11.029,0,0,1-12.471,9.4L322.57,62.519a11.055,11.055,0,0,1-9.4-12.471L318.6,11.456a11.082,11.082,0,0,1,10.918-9.507m0-1.949a12.993,12.993,0,0,0-12.848,11.184l-5.424,38.592A12.991,12.991,0,0,0,322.3,64.449l38.592,5.424a12.979,12.979,0,0,0,14.672-11.056l5.424-38.592A12.991,12.991,0,0,0,369.93,5.551L331.338.128A13.073,13.073,0,0,0,329.514,0" transform="translate(-109.037 0)" fill="#bc1b21"/>
        <path id="Path_15" data-name="Path 15" d="M470.456,69.138l-38.948-1.36A12.99,12.99,0,0,1,418.98,54.341l1.36-38.947A12.99,12.99,0,0,1,433.776,2.865l38.947,1.36a12.991,12.991,0,0,1,12.529,13.436l-1.36,38.947a12.991,12.991,0,0,1-13.436,12.529" transform="translate(-146.839 -1.001)"/>
        <path id="Path_16" data-name="Path 16" d="M433.314,4.8h0q.2,0,.394.007l38.947,1.36a11.042,11.042,0,0,1,10.65,11.421l-1.36,38.947A11,11,0,0,1,470.918,67.2c-.131,0-.262,0-.394-.007l-38.948-1.36a11.042,11.042,0,0,1-10.65-11.421l1.36-38.947A11,11,0,0,1,433.314,4.8m0-1.949A12.991,12.991,0,0,0,420.34,15.393l-1.36,38.948a12.991,12.991,0,0,0,12.529,13.436l38.948,1.36q.232.008.462.008a12.99,12.99,0,0,0,12.974-12.537l1.36-38.948A12.991,12.991,0,0,0,472.723,4.224l-38.947-1.36q-.232-.008-.462-.008" transform="translate(-146.839 -1.001)" fill="#bc1b21"/>
        <path id="Path_17" data-name="Path 17" d="M154.853,55.08l-16.768,1.467-1.8,6.676-8.777.768,11.233-38.8,10.015-.876L166.5,60.581l-8.721.763Zm-15.235-5.641,12.435-1.088-7.7-16.675Z" transform="translate(-44.69 -8.523)" fill="#fff"/>
        <path id="Path_18" data-name="Path 18" d="M248.523,31.536l-11.007-.385.246-7.056,30.03,1.049-.247,7.056-10.95-.383-1.068,30.593-8.072-.282Z" transform="translate(-83.243 -8.445)" fill="#fff"/>
        <path id="Path_19" data-name="Path 19" d="M337.587,41c1.612-11.465,11.381-18.078,22.287-16.545,8.5,1.2,12.627,6.337,14.6,11.349l-7.294,2.4a10.318,10.318,0,0,0-8.3-6.7c-6.488-.912-12.141,3.6-13.131,10.645s3.2,12.94,9.688,13.852a10.213,10.213,0,0,0,9.823-4.152l6.359,4.258a17.483,17.483,0,0,1-17.173,6.941C343.545,61.517,335.976,52.469,337.587,41" transform="translate(-118.24 -8.495)" fill="#fff"/>
        <path id="Path_20" data-name="Path 20" d="M469.264,46.738l-17.78-.621-.552,15.8-8.015-.28,1.315-37.649,8.015.28-.516,14.789,17.78.62.516-14.788,8.072.282-1.315,37.649-8.072-.282Z" transform="translate(-155.231 -8.409)" fill="#fff"/>
        <path id="Path_21" data-name="Path 21" d="M51.962,68.838H12.991A12.99,12.99,0,0,1,0,55.847V16.876A12.99,12.99,0,0,1,12.991,3.885H51.962A12.99,12.99,0,0,1,64.953,16.876V55.847A12.99,12.99,0,0,1,51.962,68.838" transform="translate(0 -1.362)" fill="#bc1b21"/>
        <path id="Path_22" data-name="Path 22" d="M51.324,35.447,40.705,62.558H37.2L26.585,35.447V62.558h-8.02V24.885H29.8l9.149,23.5,9.15-23.5H59.4V62.558H51.324Z" transform="translate(-6.507 -8.722)" fill="#fff"/>
      </g>
    </g>
    <g id="Team_Name" data-name="Team Name" transform="translate(0 166)">
      <g id="Rectangle_16" data-name="Rectangle 16" transform="translate(-10 59)" fill="none" stroke="#bc1b21" stroke-width="1">
        <path d="M0,0H72a0,0,0,0,1,0,0V4a6,6,0,0,1-6,6H0a0,0,0,0,1,0,0V0A0,0,0,0,1,0,0Z" stroke="none"/>
        <path d="M.5.5h71a0,0,0,0,1,0,0V4A5.5,5.5,0,0,1,66,9.5H.5a0,0,0,0,1,0,0V.5A0,0,0,0,1,.5.5Z" fill="none"/>
      </g>
      <g id="Rectangle_17" data-name="Rectangle 17" transform="translate(328 59)" fill="none" stroke="#bc1b21" stroke-width="1">
        <path d="M0,0H72a0,0,0,0,1,0,0V10a0,0,0,0,1,0,0H6A6,6,0,0,1,0,4V0A0,0,0,0,1,0,0Z" stroke="none"/>
        <path d="M.5.5h71a0,0,0,0,1,0,0v9a0,0,0,0,1,0,0H6A5.5,5.5,0,0,1,.5,4V.5A0,0,0,0,1,.5.5Z" fill="none"/>
      </g>
    </g>
    <g id="Team_Name-2" data-name="Team Name" transform="translate(-10 356)">
      <g id="Rectangle_16-2" data-name="Rectangle 16" fill="none" stroke="#bc1b21" stroke-width="1">
        <path d="M0,0H110a6,6,0,0,1,6,6v4a0,0,0,0,1,0,0H0a0,0,0,0,1,0,0V0A0,0,0,0,1,0,0Z" stroke="none"/>
        <path d="M.5.5H110A5.5,5.5,0,0,1,115.5,6V9.5a0,0,0,0,1,0,0H.5a0,0,0,0,1,0,0V.5A0,0,0,0,1,.5.5Z" fill="none"/>
      </g>
      <g id="Rectangle_17-2" data-name="Rectangle 17" transform="translate(294)" fill="none" stroke="#bc1b21" stroke-width="1">
        <path d="M6,0H116a0,0,0,0,1,0,0V10a0,0,0,0,1,0,0H0a0,0,0,0,1,0,0V6A6,6,0,0,1,6,0Z" stroke="none"/>
        <path d="M6,.5H115.5a0,0,0,0,1,0,0v9a0,0,0,0,1,0,0H.5a0,0,0,0,1,0,0V6A5.5,5.5,0,0,1,6,.5Z" fill="none"/>
      </g>
    </g>
  </g>
</svg>
