<svg xmlns="http://www.w3.org/2000/svg" xmlns:xlink="http://www.w3.org/1999/xlink" width="60" height="60" viewBox="0 0 60 60">
  <defs>
    <clipPath id="clip-path">
      <rect id="Rectangle_2" data-name="Rectangle 2" width="60" height="60" transform="translate(165 284)" fill="#fff"/>
    </clipPath>
  </defs>
  <g id="Logo_60x60" transform="translate(-165 -284)" clip-path="url(#clip-path)">
    <g id="logo_torontoraptors" transform="translate(158.202 277.124)">
      <path id="Path_1" data-name="Path 1" d="M46.866,64.812c.051.051.084.136.1.119a3.925,3.925,0,0,0,.457-.051l.3-.137.864-.341s2.184-1.041,2.184-1.058c.017,0,.39-.2.39-.2l.2-.085.237-.171L52,62.645l.458-.256L53.046,62l1.033-.734.491-.392.728-.529.661-.495.322-.239.44-.41.457-.461.728-.785.847-.819.982-1.143.542-.717.186-.256.576-.717,1.118-1.621.322-.529.745-1.5.423-.819.728-1.484.39-.9.406-1.331s.508-1.825.779-2.781a.329.329,0,0,0-.017-.307c-.152-.222-.271-.495-.423-.751-.068-.12-.187-.256-.254-.358s-.271-.358-.339-.443a1.925,1.925,0,0,0-.271-.256,6.138,6.138,0,0,0-.643-.58,1.5,1.5,0,0,1-.271-.188A8.942,8.942,0,0,0,61.8,39.29c-.288-.12-.593-.239-.9-.341a5.761,5.761,0,0,0-.779-.188.551.551,0,0,0-.339.034c-.1.068-.1.222-.119.358-.034.375-.051.8-.085,1.177-.034.392-.068.785-.085,1.194-.034.358-.051.717-.085,1.075-.051.478-.118.938-.2,1.416-.169.87-.356,1.74-.525,2.61a4.92,4.92,0,0,1-.17.717,5.53,5.53,0,0,0-.339,1.143,16.943,16.943,0,0,1-.745,2.388,9.084,9.084,0,0,1-.813,1.86.185.185,0,0,0-.051.12c-.169.409-.339.8-.508,1.211-.118.256-.288.495-.389.751a6.061,6.061,0,0,1-.508.921c-.3.478-.627.938-.88,1.433-.187.341-.39.666-.61.99-.068.085-.119.171-.17.239-.186.273-.339.546-.542.8-.373.478-.779.973-1.169,1.433-.254.29-.525.563-.8.853-.237.256-.474.512-.728.768-.051.051-.119.1-.169.154a4.437,4.437,0,0,0-.423.375,8.164,8.164,0,0,1-1,.87,2.262,2.262,0,0,0-.457.341A10.638,10.638,0,0,1,46.866,64.812Z" fill="#fff"/>
      <path id="Path_2" data-name="Path 2" d="M66.306,41.354c.017,0,.017-.034.017-.068a1.156,1.156,0,0,0,.017-.2l.2-1.911.136-1.791V35.332l-.2-2.013s-.237-1.809-.423-2.747a.887.887,0,0,0-.542-.631,1.453,1.453,0,0,0-.288-.119,6.381,6.381,0,0,0-.61-.2c-.457-.119-.881-.256-1.338-.341q-.813-.128-1.625-.2c-.457-.034-.9-.051-1.338-.068H59.38c-.187,0-.39,0-.474.119s-.034.341.017.546c.068.444.136.665.2,1.092a30.145,30.145,0,0,1,.491,3.889c.017.6.051,1.177.085,1.774v.444a.811.811,0,0,0,.068.29c.051.085.136.085.22.119a2.69,2.69,0,0,0,.322.068c.119.034.322.069.474.12.525.171,1.067.358,1.575.563.356.136.694.358,1.033.529a.715.715,0,0,0,.119.068c.2.154.407.307.61.444a6.112,6.112,0,0,1,1.321,1.16,3.217,3.217,0,0,0,.237.256c.136.12.373.58.542.785C66.255,41.337,66.289,41.354,66.306,41.354Z" fill="#fff"/>
      <path id="Path_3" data-name="Path 3" d="M52.961,19.927c.187-.017.339-.017.474-.034.1-.017.2-.017.237-.119.051-.1-.034-.222-.068-.273a7.77,7.77,0,0,0-.373-.682l-.339-.529-1.405-2.03-.288-.341-.254-.392-.457-.512-1.134-1.245-.491-.478L47.1,11.653l-1.44-1.126-.525-.273L43.444,9.213l-1.185-.648-.22-.1L41.073,8.1l-1.44-.546-.1-.034L39.058,7.4l-.119-.017-.407-.1-.847-.154-.407-.017-.762-.136L35.6,6.91l-.322-.034h-.576l-.948.034-.949.1-.728.017-.644.068-.66.136-.508.154-.813.154H29.27l-.762.273-.44.119L27.8,8.1l-.66.188-.322.188-.406.154-.982.409-1.253.495-.406.2-.881.478-.762.495-.711.375-.254.154-.779.409-.119.085-.9.7-.728.495-.135.1-.847.665-.288.239a3.682,3.682,0,0,0-.457.444l.322-.1.576-.2c.017,0,.119.017.119.017l.813-.341h.119l.9-.358.474-.154c0,.017.474-.171.474-.171l.677-.239L23,12.2h.152l.83-.29.66-.273.1.068,1.27.034.813.068.017.017,1.626.136.017-.017,2.252.119.017.051.8.7h.068l.813.8.068-.034,1.118.034.051-.034,2.828.171.017.068,1.253.734h.051l2.219,1.092.017.119,1.253-.495,1.846.631.3.512.711-.017.644.734h.068l.525.6.017.034h.068l1.456.341.542.836,1.355.495a22.177,22.177,0,0,0,2.185.461A9.265,9.265,0,0,0,52.961,19.927Z" fill="#fff"/>
      <path id="Path_4" data-name="Path 4" d="M65.527,28.542c-.051-.222-.2-.648-.2-.648l-.085-.239-.068-.29-.237-.717-.22-.631-.694-1.552-.3-.768-.407-.87-.474-.785-.1-.222-.322-.631-.288-.495-.135-.171-2.015-2.747s-.2-.239-.288-.341c-.051-.068-.068-.1-.118-.1h-.017s-.627,1.024-.88,1.314-.779.768-.779.768-.44.358-.508.426c-.068.051-.407.273-.407.273l-.457.273s-.356.154-.406.188a.441.441,0,0,0-.152.085.164.164,0,0,0-.034.154.514.514,0,0,0,.068.171c.186.392.356.8.559,1.177.3.563.491,1.177.762,1.774a6.256,6.256,0,0,1,.237.6c.169.529.339,1.058.508,1.569.068.239.152.461.22.7s.119.461.186.7a.27.27,0,0,0,.3.222,4.09,4.09,0,0,0,.457-.017l1.626-.051c.152,0,1.236.1,1.236.1s.39.034.576.068c.407.068.813.171,1.219.256a4.457,4.457,0,0,1,1.016.341,4.162,4.162,0,0,0,.491.171c.051.017.136.034.152.017C65.51,28.628,65.527,28.577,65.527,28.542Z" fill="#fff"/>
      <path id="Path_5" data-name="Path 5" d="M58.465,16.4a1.4,1.4,0,0,0-.152-.29l-.1-.188-.288-.341-.2-.273-.372-.358s-.085-.068-.119-.1c-.643-.529-1.931-1.57-1.931-1.587l-.356-.29-.66-.6-3.336-2.013L48.288,9.094s-1.389-.546-1.405-.546l-.508-.171-1.727-.6-1.219-.307-1.185-.256L42.056,7.2l-.085.085.051.051s.119.051.186.085c.356.154.728.273,1.1.426a5.184,5.184,0,0,0,.711.29,2.344,2.344,0,0,1,.474.2c.559.324,1.118.648,1.676.989a5.337,5.337,0,0,1,.931.7,3.763,3.763,0,0,0,.711.546c.119.068.2.171.322.256.051.051.119.1.169.154.322.273.678.512.982.819.3.341.643.665.965.972a9.329,9.329,0,0,1,.881.955,8.038,8.038,0,0,0,.694.819c.491.478.864,1.058,1.3,1.57a2.53,2.53,0,0,1,.136.222,13.844,13.844,0,0,0,.881,1.331,4.245,4.245,0,0,1,.61.938,4.184,4.184,0,0,0,.372.58.289.289,0,0,0,.271.154.536.536,0,0,0,.186-.068l.237-.1s.3-.136.423-.188a2.162,2.162,0,0,0,.389-.239c.068-.068.39-.29.576-.461.169-.171.525-.58.525-.58l.254-.341.44-.751C58.4,16.651,58.482,16.481,58.465,16.4Z" fill="#fff"/>
      <path id="Path_6" data-name="Path 6" d="M57.077,27.621c-.186-.563-.322-1.092-.525-1.638a12.942,12.942,0,0,0-.508-1.348c-.119-.256-.187-.546-.288-.819-.051-.136-.119-.273-.169-.409a16.938,16.938,0,0,0-.914-1.945l-.068-.136a.321.321,0,0,0-.136-.171c-.085-.051-.152-.017-.3,0-.288.034-.643.068-.8.068-.136,0-.694.051-1.152.085l-.085-.034H51.59l-1.439-.188c-.525-.068-1.727-.375-1.727-.375l-.88-.307-1.084-.375-.084.051-1.71-.136-.051.034-.965-.734h-.1l-.593-.546-.017-.119-.694-.1-.068.034-.542-.188-.068-.051-1.253.085L39.177,17.9l-3.929.2-.068-.034-.745.051-.084.051-1.931.154-.051-.051-2.76,1.6L29.575,20l-.119.119-.017-.051-1.389-.136-.085.034-2.439.017-.051-.034-.694-.017-.22-.119-2.557,2-.017.051-.9.717-1-.478-.068.017-.373-.1s-1.846.478-1.829.495S16.1,22.23,16.1,22.23l-.119-.119-.322.341-.694.341-.017.051L13.572,23.9l-1.964,1.416-2.2,1.655-1,.734-.051.426-.423.972-.169.836L7.493,31.63l-.169.734-.068.887-.237,1.825-.1,4.026.1.239.068,1.109s.017.188.068.2l4.877-5.084,1.609-.648,1.338-.068.813-.938.085-.171.1.051,2.2-.256.1-.068h.813l.119.051.271-.358.982-.631,1.05-.733,2.964.034.017.068,1.152.1.914-.188,1.66-1.706h.034l1.321-1.262,1.981-.256.085-.051.085.085,1.033.495.068-.068.914-.119.051-.051.847-.136.068-.051.931.8.051-.068,1.9-.034.169-.119,1.524.068.085.034.237-.051.034-.068.61-.273h.068l.711-.324.068-.068.745-.29.051-.085,2.083-.8.017-.034.373-.119.084-.085.1.119.61.29h.186l.678.375.051-.068.2-.1h.017l.339-.154.017-.017.491-.119,1.253.324.271-.068.22.154.914.136.9.341.525-.034.169.119.136-.085s1.761-.222,2.659-.29c.576-.051,1.152-.1,1.728-.171l.965-.1C57.043,27.894,57.145,27.826,57.077,27.621Z" fill="#fff"/>
      <path id="Path_7" data-name="Path 7" d="M58.364,36.748a2.114,2.114,0,0,0-.034-.324q-.026-.512-.051-1.024a2.328,2.328,0,0,0-.034-.341c-.034-.426-.034-.853-.085-1.279-.068-.546-.135-1.075-.22-1.621-.068-.409-.136-.836-.22-1.245-.085-.426-.152-.836-.237-1.262-.085-.444-.186-.495-.627-.444-.034,0-.068.017-.1.017-.169.034-.389.051-.559.085-.864.119-1.677.154-2.557.256l-2.49.87-3.59-.1-.39-.136v.068l-1.05.785-.152.017-.83.785-.051.119-2.151.29L40.972,33.8h-.2l-1.05.614-.423.051-.407.358-.1-.085-2-.136-.356.392v.068L34.706,36.97l-.017.1-.068.017-2.2,2.542-.61.017-.051.068-1.812.324h-.135s-.034.085-.051.085-2.98,1.672-2.98,1.672l-1.338-.153-.288.1-1.338-.085L22.5,43.043l-.8.154-.457-.017-.457.2-.271-.034.017.051L18.89,44.681l-.152.034-2.574,2.013.017.119L14.588,50.72l.068.171-2.625.239-.881.751-.085.273,1.168,1.638.864,1.331.745.955,1.219,1.331s0,.085.034.1a.625.625,0,0,0,.169.017s.728.239.728.256l.9.29.017.051.085-.017,1.49.58H18.6l.085.1h.135c.017,0,.356.239.356.239l.627-.341h.034l.271-.187,2.252.563L24,58.21l3.658-.358,1.49-2.44c.237-.239.66-.682.66-.682h.051l.525-.495v-.069l.948-.87.44-.461s.1-.051.1-.068c.017,0,.508-.529.508-.529l.406-.426.1-.017-.1-.375.423-1.57.83-.239.034-.034.237-.051V49.39l1.1-1.791.1-.051.457-.887.745-.426.1-.12.152.017s.44-.256.457-.256h.051l.813-.358.068-.1,2.693-1.245.169-.017L41.26,44l.1-.085.271-.938.847-.375.982-.12.9-.631,1.27.051.119.1.068-.085,1.778-.8-.017-.239L48,40.058l.881-.239.051-.051,1.2-.256.457-.546.068-.017s.271-.273.288-.273l.83.12.034.034.457.068.271.034s1.2-.563,1.711-.768c.22-.085.423-.136.627-.2.288-.1.559-.2.847-.29a3.968,3.968,0,0,1,.423-.119l.559-.1.66-.1.356-.017s.2-.017.271-.034a.621.621,0,0,0,.271-.085.281.281,0,0,0,.085-.239A.842.842,0,0,0,58.364,36.748Z" fill="#fff"/>
      <path id="Path_8" data-name="Path 8" d="M58.33,39.12c0-.1.017-.256-.068-.341a.3.3,0,0,0-.237-.1c-.068,0-.372.034-.372.034l-.525.085a.494.494,0,0,0-.169.034c-.3.068-.627.136-.931.222a7.1,7.1,0,0,0-1.016.341c-.339.154-.728.273-1.067.443-.119.069-1.27.631-1.8.887l-.677.716-.017.154-.085-.034-.423.034-.034.034-1.372.461.017.154-.136.136v.085l-.643,1.143h-.085l-.017.12s-.135.222-.271.461l-2.9,1.877h-.068l-.44.375-.322,1.211-.288.273-1.134,4.2.152.478-1.676.8h-.271l-.322,1.467-.051.051-.406,1.331.017.068-.169,1.143-.068.085.051.1-1.609,2.559-.119.034-.389.614-.017.119-1.372,1.945-1.456.87.084.12c0,.017-.084.6-.084.6l.136.222-.2.068-1.05.631-.1-.034-1.541.921-.186.29c0,.017.61.085.61.085l1,.085.678.034.813.034.356.017.593.017.593-.017,2.168-.273,1.27-.222.965-.273,1.05-.307,1.338-.529.1-.051.372-.222s1.084-.58,1.575-.938a29.963,29.963,0,0,0,2.422-1.979c.271-.256.508-.5.779-.751l.728-.734c.034-.051.1-.085.119-.136a1.507,1.507,0,0,1,.373-.478,2.651,2.651,0,0,0,.288-.324,3.89,3.89,0,0,1,.627-.666,3.784,3.784,0,0,0,.474-.563c.254-.358.491-.733.728-1.109.322-.495.677-.972.948-1.484.3-.546.593-1.109.9-1.655.254-.461.525-.938.728-1.416.339-.819.678-1.621,1-2.439a24.528,24.528,0,0,0,.83-2.679,20.627,20.627,0,0,1,.525-2.013,1.289,1.289,0,0,0,.068-.273c.085-.546.187-1.109.271-1.655.085-.529.152-1.041.22-1.57.051-.358.118-.717.136-1.075.051-.495.068-.989.084-1.484V39.12Z" fill="#fff"/>
    </g>
  </g>
</svg>
